<svg id="Backend_Image" data-name="Backend Image" xmlns="http://www.w3.org/2000/svg" width="300" height="238.714" viewBox="0 0 300 238.714">
    <g id="Mac_Frame_1_">
      <path id="Path_11" data-name="Path 11" d="M300,210.1a4.2,4.2,0,0,1-4.182,4.182H4.182A4.2,4.2,0,0,1,0,210.1V4.182A4.2,4.2,0,0,1,4.182,0H295.818A4.2,4.2,0,0,1,300,4.182Z" fill="#424949"/>
    </g>
    <path id="Mac_Frame" d="M295.818,482.56H4.182A4.184,4.184,0,0,1,0,478.378V461.13H300v17.248A4.178,4.178,0,0,1,295.818,482.56Z" transform="translate(0 -268.275)" fill="#a6acaf"/>
    <path id="Mac_Stand" d="M339.3,536.8H252.09l13.755-24.428h59.7Z" transform="translate(-146.66 -298.085)" fill="#797d7f"/>
    <path id="Mac_Screen" d="M300.665,194.376H24.186a1.046,1.046,0,0,1-1.046-1.046V24a1.046,1.046,0,0,1,1.046-1.046H300.669A1.046,1.046,0,0,1,301.714,24V193.334A1.051,1.051,0,0,1,300.665,194.376Z" transform="translate(-13.462 -13.352)" fill="#272822"/>
    <circle id="Ellipse_10" data-name="Ellipse 10" cx="3.856" cy="3.856" r="3.856" transform="translate(267.859 199.718)" fill="#424949"/>
    <circle id="Ellipse_11" data-name="Ellipse 11" cx="4.287" cy="4.287" r="4.287" transform="translate(279.858 199.288)" fill="#fff"/>
    <rect id="Rectangle_14" data-name="Rectangle 14" width="49.559" height="12.547" transform="translate(55.967 43.077)" fill="#eb2667"/>
    <rect id="Rectangle_15" data-name="Rectangle 15" width="29.276" height="12.547" transform="translate(113.891 43.077)" fill="#4ea0a8"/>
    <rect id="Rectangle_16" data-name="Rectangle 16" width="51.86" height="12.547" transform="translate(117.236 64.406)" fill="#f4f4ee"/>
    <rect id="Rectangle_17" data-name="Rectangle 17" width="131.322" height="12.547" transform="translate(147.348 43.077)" fill="#a3db2d"/>
    <rect id="Rectangle_18" data-name="Rectangle 18" width="78.626" height="12.547" transform="translate(80.433 85.318)" fill="#cda412"/>
    <rect id="Rectangle_19" data-name="Rectangle 19" width="79.881" height="12.547" transform="translate(177.461 64.406)" fill="#c2ba5b"/>
    <rect id="Rectangle_20" data-name="Rectangle 20" width="80.717" height="12.547" transform="translate(167.423 85.736)" fill="#8867e5"/>
    <rect id="Rectangle_21" data-name="Rectangle 21" width="28.439" height="12.547" transform="translate(80.433 64.406)" fill="#4ea0a8"/>
    <rect id="Rectangle_22" data-name="Rectangle 22" width="4.182" height="163.107" transform="translate(43.629 17.984)" fill="#fff"/>
    <rect id="Rectangle_23" data-name="Rectangle 23" width="16.729" height="6.273" transform="translate(16.445 20.075)" fill="#fff"/>
    <rect id="Rectangle_24" data-name="Rectangle 24" width="16.729" height="6.273" transform="translate(20.627 30.949)" fill="#4a3e45"/>
    <rect id="Rectangle_25" data-name="Rectangle 25" width="16.729" height="6.273" transform="translate(20.627 42.659)" fill="#4a3e45"/>
    <rect id="Rectangle_26" data-name="Rectangle 26" width="16.729" height="6.273" transform="translate(20.627 54.369)" fill="#4a3e45"/>
    <rect id="Rectangle_27" data-name="Rectangle 27" width="16.729" height="6.273" transform="translate(16.445 66.498)" fill="#fff"/>
    <rect id="Rectangle_28" data-name="Rectangle 28" width="16.729" height="6.273" transform="translate(20.627 77.371)" fill="#4a3e45"/>
    <rect id="Rectangle_29" data-name="Rectangle 29" width="16.729" height="6.273" transform="translate(20.627 89.082)" fill="#4a3e45"/>
    <rect id="Rectangle_30" data-name="Rectangle 30" width="16.729" height="6.273" transform="translate(20.627 100.792)" fill="#4a3e45"/>
    <rect id="Rectangle_31" data-name="Rectangle 31" width="27.603" height="12.547" transform="translate(57.849 106.229)" fill="#4ea0a8"/>
    <rect id="Rectangle_32" data-name="Rectangle 32" width="36.804" height="12.547" transform="translate(93.816 106.229)" fill="#f4f4ee"/>
    <rect id="Rectangle_33" data-name="Rectangle 33" width="83.645" height="12.547" transform="translate(138.984 106.229)" fill="#8867e5"/>
    <rect id="Rectangle_34" data-name="Rectangle 34" width="63.57" height="12.547" transform="translate(80.433 126.303)" fill="#a3db2d"/>
    <rect id="Rectangle_35" data-name="Rectangle 35" width="66.916" height="12.547" transform="translate(80.433 146.378)" fill="#a3db2d"/>
    <rect id="Rectangle_36" data-name="Rectangle 36" width="28.857" height="12.547" transform="translate(151.531 146.378)" fill="#cda412"/>
  </svg>
