<svg id="Backend" xmlns="http://www.w3.org/2000/svg" width="300" height="238.714" viewBox="0 0 300 238.714">
  <g id="Mac_Frame_1_">
    <path id="Path_11" data-name="Path 11" d="M300,210.1a4.2,4.2,0,0,1-4.182,4.182H4.182A4.2,4.2,0,0,1,0,210.1V4.182A4.2,4.2,0,0,1,4.182,0H295.818A4.2,4.2,0,0,1,300,4.182Z" fill="#424949"/>
  </g>
  <path id="Mac_Frame" d="M295.818,482.56H4.182A4.184,4.184,0,0,1,0,478.378V461.13H300v17.248A4.178,4.178,0,0,1,295.818,482.56Z" transform="translate(0 -268.275)" fill="#a6acaf"/>
  <path id="Mac_Stand" d="M339.3,536.8H252.09l13.755-24.428h59.7Z" transform="translate(-146.66 -298.085)" fill="#797d7f"/>
  <path id="Mac_Screen" d="M300.665,194.376H24.186a1.046,1.046,0,0,1-1.046-1.046V24a1.046,1.046,0,0,1,1.046-1.046H300.669A1.046,1.046,0,0,1,301.714,24V193.334A1.051,1.051,0,0,1,300.665,194.376Z" transform="translate(-13.462 -13.352)" fill="#272822"/>
  <circle id="Ellipse_10" data-name="Ellipse 10" cx="3.856" cy="3.856" r="3.856" transform="translate(267.86 199.718)" fill="#424949"/>
  <circle id="Ellipse_11" data-name="Ellipse 11" cx="4.287" cy="4.287" r="4.287" transform="translate(279.858 199.288)" fill="#fff"/>
  <rect id="Rectangle_14" data-name="Rectangle 14" width="49.559" height="12.547" transform="translate(55.916 40.024)" fill="#eb2667"/>
  <rect id="Rectangle_15" data-name="Rectangle 15" width="29.276" height="12.547" transform="translate(114.154 39.606)" fill="#4ea0a8"/>
  <rect id="Rectangle_16" data-name="Rectangle 16" width="51.86" height="12.547" transform="translate(117.5 60.935)" fill="#f4f4ee"/>
  <rect id="Rectangle_17" data-name="Rectangle 17" width="131.322" height="12.547" transform="translate(147.612 39.606)" fill="#a3db2d"/>
  <rect id="Rectangle_18" data-name="Rectangle 18" width="78.626" height="12.547" transform="translate(80.696 81.846)" fill="#cda412"/>
  <rect id="Rectangle_19" data-name="Rectangle 19" width="79.881" height="12.547" transform="translate(177.724 61.851)" fill="#c2ba5b"/>
  <rect id="Rectangle_20" data-name="Rectangle 20" width="80.717" height="12.547" transform="translate(167.687 83.18)" fill="#8867e5"/>
  <rect id="Rectangle_21" data-name="Rectangle 21" width="28.439" height="12.547" transform="translate(80.696 60.935)" fill="#4ea0a8"/>
  <rect id="Rectangle_22" data-name="Rectangle 22" width="4.182" height="163.107" transform="translate(43.629 17.984)" fill="#fff"/>
  <rect id="Rectangle_23" data-name="Rectangle 23" width="16.729" height="6.273" transform="translate(16.445 20.075)" fill="#fff"/>
  <rect id="Rectangle_24" data-name="Rectangle 24" width="16.729" height="6.273" transform="translate(20.627 30.949)" fill="#4a3e45"/>
  <rect id="Rectangle_25" data-name="Rectangle 25" width="16.729" height="6.273" transform="translate(20.627 42.659)" fill="#4a3e45"/>
  <rect id="Rectangle_26" data-name="Rectangle 26" width="16.729" height="6.273" transform="translate(20.627 54.369)" fill="#4a3e45"/>
  <rect id="Rectangle_27" data-name="Rectangle 27" width="16.729" height="6.273" transform="translate(16.445 66.498)" fill="#fff"/>
  <rect id="Rectangle_28" data-name="Rectangle 28" width="16.729" height="6.273" transform="translate(20.627 77.371)" fill="#4a3e45"/>
  <rect id="Rectangle_29" data-name="Rectangle 29" width="16.729" height="6.273" transform="translate(20.627 89.082)" fill="#4a3e45"/>
  <rect id="Rectangle_30" data-name="Rectangle 30" width="16.729" height="6.273" transform="translate(20.627 100.792)" fill="#4a3e45"/>
  <rect id="Rectangle_31" data-name="Rectangle 31" width="27.603" height="12.547" transform="translate(57.276 104.665)" fill="#4ea0a8"/>
  <rect id="Rectangle_32" data-name="Rectangle 32" width="36.804" height="12.547" transform="translate(94.079 103.673)" fill="#f4f4ee"/>
  <rect id="Rectangle_33" data-name="Rectangle 33" width="83.645" height="12.547" transform="translate(139.247 103.673)" fill="#8867e5"/>
  <rect id="Rectangle_34" data-name="Rectangle 34" width="63.57" height="12.547" transform="translate(80.696 123.748)" fill="#a3db2d"/>
  <rect id="Rectangle_35" data-name="Rectangle 35" width="66.916" height="12.547" transform="translate(80.696 143.823)" fill="#a3db2d"/>
  <rect id="Rectangle_36" data-name="Rectangle 36" width="28.857" height="12.547" transform="translate(151.794 143.823)" fill="#cda412"/>
  <g id="Group_7" data-name="Group 7" transform="translate(70.073 17.984)">
    <rect id="Rectangle_37" data-name="Rectangle 37" width="2.509" height="10.037" transform="translate(0.001 1.774) rotate(-45)" fill="#fff"/>
    <g id="Group_6" data-name="Group 6" transform="translate(0 5.325)">
      <rect id="Rectangle_38" data-name="Rectangle 38" width="2.509" height="10.037" transform="translate(7.097 0) rotate(45)" fill="#fff"/>
    </g>
  </g>
  <g id="Group_9" data-name="Group 9" transform="translate(54.507 18.18)">
    <rect id="Rectangle_39" data-name="Rectangle 39" width="2.509" height="10.037" transform="translate(8.872 12.424) rotate(135)" fill="#fff"/>
    <g id="Group_8" data-name="Group 8" transform="translate(0 0)">
      <rect id="Rectangle_40" data-name="Rectangle 40" width="2.509" height="10.037" transform="translate(1.774 8.872) rotate(-135)" fill="#fff"/>
    </g>
  </g>
  <g id="Group_11" data-name="Group 11" transform="translate(77.262 163.667)">
    <rect id="Rectangle_41" data-name="Rectangle 41" width="2.509" height="10.037" transform="translate(0 1.774) rotate(-45)" fill="#fff"/>
    <g id="Group_10" data-name="Group 10" transform="translate(0.002 5.325)">
      <rect id="Rectangle_42" data-name="Rectangle 42" width="2.509" height="10.037" transform="translate(7.097) rotate(45)" fill="#fff"/>
    </g>
  </g>
  <g id="Group_13" data-name="Group 13" transform="translate(54.505 163.6)">
    <rect id="Rectangle_43" data-name="Rectangle 43" width="2.509" height="10.037" transform="translate(8.876 12.424) rotate(135)" fill="#fff"/>
    <g id="Group_12" data-name="Group 12" transform="translate(0 0)">
      <rect id="Rectangle_44" data-name="Rectangle 44" width="2.509" height="10.037" transform="translate(1.774 8.872) rotate(-135)" fill="#fff"/>
    </g>
  </g>
  <rect id="Rectangle_45" data-name="Rectangle 45" width="2.509" height="18.82" transform="matrix(0.899, 0.439, -0.439, 0.899, 73.311, 161.229)" fill="#fff"/>
</svg>
