<svg id="Frontend_Image" data-name="Frontend Image" xmlns="http://www.w3.org/2000/svg" width="300" height="238.714" viewBox="0 0 300 238.714">
    <g id="Group_2" data-name="Group 2">
      <g id="Group_1" data-name="Group 1">
        <g id="Mac_Frame_1_">
          <path id="Path_1" data-name="Path 1" d="M300,210.1a4.194,4.194,0,0,1-4.182,4.182H4.182A4.2,4.2,0,0,1,0,210.1V4.182A4.2,4.2,0,0,1,4.182,0H295.818A4.2,4.2,0,0,1,300,4.182Z" fill="#424949"/>
        </g>
        <path id="Mac_Frame" d="M295.818,482.56H4.182A4.184,4.184,0,0,1,0,478.378V461.13H300v17.248A4.178,4.178,0,0,1,295.818,482.56Z" transform="translate(0 -268.275)" fill="#a6acaf"/>
        <path id="Mac_Stand" d="M339.3,536.8H252.09l13.755-24.428h59.7Z" transform="translate(-146.66 -298.085)" fill="#797d7f"/>
        <path id="Mac_Screen" d="M301.095,199.1H24.616a1.046,1.046,0,0,1-1.046-1.046V28.716a1.046,1.046,0,0,1,1.046-1.046H301.1a1.046,1.046,0,0,1,1.046,1.046V198.054A1.05,1.05,0,0,1,301.095,199.1Z" transform="translate(-13.712 -16.098)" fill="#fff"/>
        <circle id="Ellipse_2" data-name="Ellipse 2" cx="3.856" cy="3.856" r="3.856" transform="translate(267.859 199.718)" fill="#424949"/>
        <circle id="Ellipse_3" data-name="Ellipse 3" cx="4.287" cy="4.287" r="4.287" transform="translate(279.858 199.288)" fill="#fff"/>
        <rect id="Rectangle_2" data-name="Rectangle 2" width="257.145" height="70.713" transform="translate(20.572 36.427)" fill="#ffd05c"/>
        <rect id="Rectangle_3" data-name="Rectangle 3" width="257.145" height="10.715" transform="translate(20.572 18.427)" fill="#24252a"/>
        <rect id="Rectangle_4" data-name="Rectangle 4" width="107.145" height="60.27" transform="translate(20.572 114.51)" fill="#ff7058"/>
        <rect id="Rectangle_5" data-name="Rectangle 5" width="137.144" height="17.143" transform="translate(140.573 114.857)" fill="#95a5a6"/>
        <rect id="Rectangle_6" data-name="Rectangle 6" width="137.144" height="6.428" transform="translate(140.573 137.144)" fill="#cdd5df"/>
        <rect id="Rectangle_7" data-name="Rectangle 7" width="137.144" height="6.428" transform="translate(140.573 147.428)" fill="#cdd5df"/>
      </g>
      <rect id="Rectangle_8" data-name="Rectangle 8" width="68.572" height="6.428" transform="translate(140.573 168.431)" fill="#cdd5df"/>
      <rect id="Rectangle_9" data-name="Rectangle 9" width="137.144" height="6.428" transform="translate(140.573 157.716)" fill="#cdd5df"/>
    </g>
  </svg>
